<svg xmlns="http://www.w3.org/2000/svg" viewBox="0 0 400 600" width="400" height="600">
  <ellipse cx="200" cy="280" rx="75" ry="85" fill="#E8F4F8"/>
  <ellipse cx="200" cy="280" rx="65" ry="75" fill="#FFFFFF"/>
  
  <ellipse cx="200" cy="300" rx="50" ry="45" fill="#4A90E2"/>
  <circle cx="200" cy="295" r="15" fill="#357ABD"/>
  <circle cx="200" cy="295" r="8" fill="#5AA7E8"/>
  
  <g id="left-arm">
    <ellipse cx="135" cy="270" rx="20" ry="35" fill="#E8F4F8" transform="rotate(-20 135 270)"/>
    <ellipse cx="135" cy="270" rx="16" ry="30" fill="#FFFFFF" transform="rotate(-20 135 270)"/>
  </g>
  
  <g id="right-arm">
    <ellipse cx="265" cy="270" rx="20" ry="35" fill="#E8F4F8" transform="rotate(20 265 270)"/>
    <ellipse cx="265" cy="270" rx="16" ry="30" fill="#FFFFFF" transform="rotate(20 265 270)"/>
  </g>
  
  <circle cx="200" cy="200" r="60" fill="#E8F4F8"/>
  <circle cx="200" cy="200" r="52" fill="#FFFFFF"/>
  
  <ellipse cx="200" cy="185" rx="45" ry="25" fill="#1a1a2e" opacity="0.9"/>
  <ellipse cx="200" cy="185" rx="42" ry="22" fill="#0f3460"/>
  
  <circle cx="180" cy="185" r="10" fill="#5AA7E8" opacity="0.9"/>
  <circle cx="220" cy="185" r="10" fill="#5AA7E8" opacity="0.9"/>
  
  <line x1="200" y1="140" x2="200" y2="110" stroke="#4A5568" stroke-width="4" stroke-linecap="round"/>
  <circle cx="200" cy="105" r="8" fill="#FF6B6B"/>
  <circle cx="200" cy="105" r="5" fill="#FF8E8E"/>
  
  <g id="left-leg">
    <rect x="155" y="355" width="30" height="50" rx="15" fill="#E8F4F8"/>
    <rect x="158" y="358" width="24" height="44" rx="12" fill="#FFFFFF"/>
    <ellipse cx="170" cy="410" rx="20" ry="12" fill="#4A90E2"/>
    <ellipse cx="170" cy="410" rx="16" ry="9" fill="#5AA7E8"/>
  </g>
  
  <g id="right-leg">
    <rect x="215" y="355" width="30" height="50" rx="15" fill="#E8F4F8"/>
    <rect x="218" y="358" width="24" height="44" rx="12" fill="#FFFFFF"/>
    <ellipse cx="230" cy="410" rx="20" ry="12" fill="#4A90E2"/>
    <ellipse cx="230" cy="410" rx="16" ry="9" fill="#5AA7E8"/>
  </g>
  
</svg>