<svg xmlns="http://www.w3.org/2000/svg" viewBox="0 0 400 600" width="400" height="600">
  <g id="flames">
    <ellipse cx="155" cy="335" rx="20" ry="35" fill="#FF6B35" opacity="0.8">
      <animate attributeName="ry" values="35;45;35" dur="0.3s" repeatCount="indefinite"/>
      <animate attributeName="opacity" values="0.8;1;0.8" dur="0.3s" repeatCount="indefinite"/>
    </ellipse>
    <ellipse cx="155" cy="350" rx="15" ry="25" fill="#FFD23F" opacity="0.9">
      <animate attributeName="ry" values="25;32;25" dur="0.3s" repeatCount="indefinite"/>
    </ellipse>
    <ellipse cx="155" cy="360" rx="10" ry="18" fill="#FFFFFF" opacity="0.7">
      <animate attributeName="ry" values="18;24;18" dur="0.3s" repeatCount="indefinite"/>
    </ellipse>
    
    <ellipse cx="245" cy="335" rx="20" ry="35" fill="#FF6B35" opacity="0.8">
      <animate attributeName="ry" values="35;45;35" dur="0.3s" repeatCount="indefinite"/>
      <animate attributeName="opacity" values="0.8;1;0.8" dur="0.3s" repeatCount="indefinite"/>
    </ellipse>
    <ellipse cx="245" cy="350" rx="15" ry="25" fill="#FFD23F" opacity="0.9">
      <animate attributeName="ry" values="25;32;25" dur="0.3s" repeatCount="indefinite"/>
    </ellipse>
    <ellipse cx="245" cy="360" rx="10" ry="18" fill="#FFFFFF" opacity="0.7">
      <animate attributeName="ry" values="18;24;18" dur="0.3s" repeatCount="indefinite"/>
    </ellipse>
  </g>
  
  <ellipse cx="200" cy="280" rx="75" ry="85" fill="#E8F4F8"/>
  <ellipse cx="200" cy="280" rx="65" ry="75" fill="#FFFFFF"/>
  
  <ellipse cx="200" cy="300" rx="50" ry="45" fill="#4A90E2"/>
  <circle cx="200" cy="295" r="15" fill="#357ABD"/>
  <circle cx="200" cy="295" r="8" fill="#5AA7E8"/>
  
  <g id="left-arm">
    <ellipse cx="135" cy="317" rx="20" ry="35" fill="#E8F4F8" transform="rotate(100 135 270)"/>
    <ellipse cx="135" cy="317" rx="16" ry="30" fill="#FFFFFF" transform="rotate(100 135 270)"/>
  </g>
  
  <g id="right-arm">
    <ellipse cx="265" cy="270" rx="20" ry="35" fill="#E8F4F8" transform="rotate(20 265 270)"/>
    <ellipse cx="265" cy="270" rx="16" ry="30" fill="#FFFFFF" transform="rotate(20 265 270)"/>
  </g>
  
  <circle cx="200" cy="200" r="60" fill="#E8F4F8"/>
  <circle cx="200" cy="200" r="52" fill="#FFFFFF"/>
  
  <ellipse cx="200" cy="185" rx="45" ry="25" fill="#1a1a2e" opacity="0.9"/>
  <ellipse cx="200" cy="185" rx="42" ry="22" fill="#0f3460"/>
  
  <circle cx="180" cy="185" r="10" fill="#07DA63" opacity="0.9"/>
  <circle cx="220" cy="185" r="10" fill="#07DA63" opacity="0.9"/>
  
  <line x1="200" y1="140" x2="200" y2="110" stroke="#4A5568" stroke-width="4" stroke-linecap="round"/>
  <circle cx="200" cy="105" r="8" fill="#FF6B6B"/>
  <circle cx="200" cy="105" r="5" fill="#FF8E8E"/>
  
  <g id="left-leg">
    <rect x="155" y="355" width="30" height="50" rx="15" fill="#E8F4F8"/>
    <rect x="158" y="358" width="24" height="44" rx="12" fill="#FFFFFF"/>
    <ellipse cx="170" cy="410" rx="20" ry="12" fill="#4A90E2"/>
    <ellipse cx="170" cy="410" rx="16" ry="9" fill="#5AA7E8"/>
  </g>
  
  <g id="right-leg">
    <rect x="215" y="355" width="30" height="50" rx="15" fill="#E8F4F8"/>
    <rect x="218" y="358" width="24" height="44" rx="12" fill="#FFFFFF"/>
    <ellipse cx="230" cy="410" rx="20" ry="12" fill="#4A90E2"/>
    <ellipse cx="230" cy="410" rx="16" ry="9" fill="#5AA7E8"/>
  </g>
  
  <g opacity="0.4">
    <line x1="120" y1="450" x2="115" y2="480" stroke="#4A90E2" stroke-width="3" stroke-linecap="round">
      <animate attributeName="opacity" values="0.4;0.1;0.4" dur="0.8s" repeatCount="indefinite"/>
    </line>
    <line x1="150" y1="460" x2="145" y2="490" stroke="#4A90E2" stroke-width="3" stroke-linecap="round">
      <animate attributeName="opacity" values="0.3;0.1;0.3" dur="0.9s" repeatCount="indefinite"/>
    </line>
    <line x1="250" y1="460" x2="255" y2="490" stroke="#4A90E2" stroke-width="3" stroke-linecap="round">
      <animate attributeName="opacity" values="0.3;0.1;0.3" dur="0.9s" repeatCount="indefinite"/>
    </line>
    <line x1="280" y1="450" x2="285" y2="480" stroke="#4A90E2" stroke-width="3" stroke-linecap="round">
      <animate attributeName="opacity" values="0.4;0.1;0.4" dur="0.8s" repeatCount="indefinite"/>
    </line>
  </g>
  
  <animateTransform
    attributeName="transform"
    attributeType="XML"
    type="translate"
    values="0 0; 0 -5; 0 0"
    dur="1.5s"
    repeatCount="indefinite"/>
</svg>
